<?xml version="1.0" encoding="utf-8"?>
<!-- Generator: Adobe Illustrator 17.1.0, SVG Export Plug-In . SVG Version: 6.00 Build 0)  -->
<!DOCTYPE svg PUBLIC "-//W3C//DTD SVG 1.1//EN" "http://www.w3.org/Graphics/SVG/1.1/DTD/svg11.dtd">
<svg version="1.1" id="Layer_1" xmlns="http://www.w3.org/2000/svg" xmlns:xlink="http://www.w3.org/1999/xlink" x="0px" y="0px"
	 viewBox="0 0 20 22" preserveAspectRatio="xMinYMid" enable-background="new 0 0 20 22" xml:space="preserve">
<g>
	<g>
		<path fill="#FFFFFF" d="M10,2.35c0,0,0-1.075,2.219-1.075c2.22,0,2.22-1.075,2.22-1.075v1.075c0,0,0,1.075-2.22,1.075
			C10,2.35,10,3.425,10,3.425V2.35z"/>
		<path fill="#FFFFFF" d="M10,4.5c0,0,0-1.075,2.219-1.075c2.22,0,2.22-1.075,2.22-1.075v1.075c0,0,0,1.075-2.22,1.075
			C10,4.5,10,5.574,10,5.574V4.5z"/>
		<line fill="none" stroke="#FFFFFF" stroke-linecap="round" x1="1.5" y1="12.887" x2="1.5" y2="18.887"/>
	</g>
	<line fill="none" stroke="#FFFFFF" stroke-linecap="round" x1="3.929" y1="12.887" x2="3.929" y2="18.887"/>
	<line fill="none" stroke="#FFFFFF" stroke-linecap="round" x1="6.357" y1="12.887" x2="6.357" y2="18.887"/>
	<line fill="none" stroke="#FFFFFF" stroke-linecap="round" x1="8.786" y1="12.887" x2="8.786" y2="18.887"/>
	<line fill="none" stroke="#FFFFFF" stroke-linecap="round" x1="11.214" y1="12.887" x2="11.214" y2="18.887"/>
	<line fill="none" stroke="#FFFFFF" stroke-linecap="round" x1="13.643" y1="12.887" x2="13.643" y2="18.887"/>
	<line fill="none" stroke="#FFFFFF" stroke-linecap="round" x1="16.071" y1="12.887" x2="16.071" y2="18.887"/>
	<g>
		<line fill="none" stroke="#FFFFFF" stroke-linecap="round" x1="18.5" y1="12.887" x2="18.5" y2="18.887"/>
		<polygon fill="none" stroke="#FFFFFF" stroke-linecap="round" stroke-linejoin="round" points="10,6.887 0.5,10.387 19.5,10.387 
					"/>
		<line fill="none" stroke="#FFFFFF" stroke-linecap="round" x1="0.5" y1="21.387" x2="19.5" y2="21.387"/>
	</g>
</g>
</svg>
