<?xml version="1.0" encoding="utf-8"?>
<!-- Generator: Adobe Illustrator 17.1.0, SVG Export Plug-In . SVG Version: 6.00 Build 0)  -->
<!DOCTYPE svg PUBLIC "-//W3C//DTD SVG 1.1//EN" "http://www.w3.org/Graphics/SVG/1.1/DTD/svg11.dtd">
<svg version="1.1" id="Layer_1" xmlns="http://www.w3.org/2000/svg" xmlns:xlink="http://www.w3.org/1999/xlink" x="0px" y="0px"
	 viewBox="0 0 20 20" enable-background="new 0 0 20 20" xml:space="preserve">
<polyline fill="none" stroke="#F55F57" stroke-linecap="round" stroke-linejoin="round" stroke-miterlimit="10" points="
	14.083,7.167 7.958,12.834 5.916,10.81 "/>
<g>
	<path fill="none" stroke="#F55F57" stroke-linejoin="round" stroke-miterlimit="10" d="M19.5,10c0-0.808-0.582-1.479-1.35-1.621
		c0.654-0.426,0.935-1.267,0.627-2.014c-0.31-0.748-1.104-1.144-1.868-0.982c0.442-0.643,0.379-1.529-0.193-2.101
		c-0.572-0.571-1.457-0.633-2.1-0.192c0.162-0.764-0.235-1.557-0.983-1.866c-0.747-0.31-1.588-0.029-2.013,0.625
		C11.477,1.082,10.808,0.5,10,0.5c-0.811,0-1.48,0.582-1.623,1.349C7.953,1.195,7.11,0.914,6.362,1.224
		C5.615,1.533,5.219,2.326,5.381,3.09c-0.643-0.441-1.528-0.379-2.1,0.193c-0.572,0.571-0.634,1.457-0.193,2.1
		C2.325,5.221,1.533,5.618,1.224,6.365c-0.31,0.747-0.031,1.588,0.622,2.013C1.079,8.521,0.5,9.192,0.5,10
		c0,0.808,0.58,1.479,1.346,1.622c-0.653,0.425-0.932,1.268-0.623,2.015c0.31,0.746,1.102,1.142,1.865,0.981
		c-0.441,0.643-0.378,1.528,0.193,2.1c0.572,0.572,1.456,0.634,2.1,0.194c-0.162,0.762,0.235,1.555,0.982,1.865
		c0.747,0.31,1.59,0.029,2.014-0.625C8.52,18.919,9.192,19.5,10,19.5s1.477-0.581,1.62-1.348c0.425,0.654,1.266,0.933,2.014,0.625
		c0.747-0.31,1.143-1.103,0.982-1.867c0.643,0.442,1.528,0.38,2.1-0.192s0.635-1.457,0.193-2.1c0.763,0.162,1.558-0.235,1.868-0.981
		c0.31-0.747,0.028-1.59-0.627-2.015C18.917,11.48,19.5,10.809,19.5,10z"/>
</g>
</svg>
