<?xml version="1.0" encoding="utf-8"?>
<!-- Generator: Adobe Illustrator 17.1.0, SVG Export Plug-In . SVG Version: 6.00 Build 0)  -->
<!DOCTYPE svg PUBLIC "-//W3C//DTD SVG 1.1//EN" "http://www.w3.org/Graphics/SVG/1.1/DTD/svg11.dtd">
<svg version="1.1" id="Layer_1" xmlns="http://www.w3.org/2000/svg" xmlns:xlink="http://www.w3.org/1999/xlink" x="0px" y="0px"
	 viewBox="0 0 15 16" width="15" height="16" preserveAspectRatio="xMinYMid" enable-background="new 0 0 15 16" xml:space="preserve">
<g>
	<g>
		<path fill="#EB3733" d="M7.5,1.598c0,0,0-0.799,1.626-0.799C10.751,0.799,10.751,0,10.751,0v0.799c0,0,0,0.799-1.625,0.799
			C7.5,1.598,7.5,2.397,7.5,2.397V1.598z"/>
		<path fill="#EB3733" d="M7.5,3.195c0,0,0-0.799,1.626-0.799c1.625,0,1.625-0.799,1.625-0.799v0.799c0,0,0,0.799-1.625,0.799
			C7.5,3.195,7.5,3.994,7.5,3.994V3.195z"/>
		<path fill="#FFFFFF" d="M7.5,2.396c0,0,0-0.799,1.626-0.799c1.625,0,1.625-0.799,1.625-0.799v0.799c0,0,0,0.799-1.625,0.799
			C7.5,2.396,7.5,3.196,7.5,3.196V2.396z"/>
		<line fill="none" stroke="#1A1A18" stroke-width="0.75" stroke-linecap="round" x1="1.397" y1="9.545" x2="1.397" y2="13.767"/>
	</g>
	<line fill="none" stroke="#1A1A18" stroke-width="0.75" stroke-linecap="round" x1="3.141" y1="9.545" x2="3.141" y2="13.767"/>
	<line fill="none" stroke="#1A1A18" stroke-width="0.75" stroke-linecap="round" x1="4.884" y1="9.545" x2="4.884" y2="13.767"/>
	<line fill="none" stroke="#1A1A18" stroke-width="0.75" stroke-linecap="round" x1="6.628" y1="9.545" x2="6.628" y2="13.767"/>
	<line fill="none" stroke="#1A1A18" stroke-width="0.75" stroke-linecap="round" x1="8.372" y1="9.545" x2="8.372" y2="13.767"/>
	<line fill="none" stroke="#1A1A18" stroke-width="0.75" stroke-linecap="round" x1="10.115" y1="9.545" x2="10.115" y2="13.767"/>
	<line fill="none" stroke="#1A1A18" stroke-width="0.75" stroke-linecap="round" x1="11.859" y1="9.545" x2="11.859" y2="13.767"/>
	<line fill="none" stroke="#1A1A18" stroke-width="0.75" stroke-linecap="round" x1="13.603" y1="9.545" x2="13.603" y2="13.767"/>
	<g>
		<polygon fill="none" stroke="#1A1A18" stroke-width="0.75" stroke-linecap="round" stroke-linejoin="round" points="7.5,5.087 
			0.665,7.452 14.335,7.452 		"/>
		<line fill="none" stroke="#1A1A18" stroke-width="0.75" stroke-linecap="round" x1="0.665" y1="15.625" x2="14.335" y2="15.625"/>
	</g>
</g>
</svg>
