<?xml version="1.0" encoding="utf-8"?>
<!-- Generator: Adobe Illustrator 19.2.1, SVG Export Plug-In . SVG Version: 6.00 Build 0)  -->
<svg version="1.1" id="Layer_1" xmlns="http://www.w3.org/2000/svg" xmlns:xlink="http://www.w3.org/1999/xlink" x="0px" y="0px"
	 viewBox="0 0 190 190" enable-background="new 0 0 190 190" xml:space="preserve">
<g>
	<g>
		<g>
			<path fill="#D64C6B" d="M95,190c52.467,0,95-42.533,95-95S147.467,0,95,0S0,42.533,0,95S42.533,190,95,190"/>
		</g>
		<g>
			<defs>
				<circle id="SVGID_53_" cx="95" cy="95" r="95"/>
			</defs>
			<clipPath id="SVGID_2_">
				<use xlink:href="#SVGID_53_"  overflow="visible"/>
			</clipPath>
			<polygon clip-path="url(#SVGID_2_)" fill="none" stroke="#FFFFFF" stroke-linejoin="round" stroke-miterlimit="10" points="
				106.626,33.098 101.727,25.736 104.177,25.736 99.278,18.373 94.379,25.736 96.828,25.736 91.929,33.098 95.604,33.098 
				90.092,40.46 108.463,40.46 102.952,33.098 			"/>
			
				<line clip-path="url(#SVGID_2_)" fill="none" stroke="#FFFFFF" stroke-linecap="round" stroke-linejoin="round" stroke-miterlimit="10" x1="99.278" y1="40.351" x2="99.278" y2="46.43"/>
			
				<path clip-path="url(#SVGID_2_)" fill="none" stroke="#FFFFFF" stroke-linecap="round" stroke-linejoin="round" stroke-miterlimit="10" d="
				M158.417,70.736h1.833 M158.417,67.072h1.833 M151.085,70.736h1.833 M151.085,67.072h1.833 M143.752,70.736h1.833
				 M143.752,67.072h1.833 M137.642,49.363c5.499-7.328,10.999,2.443,16.498-2.442C147.418,56.08,142.53,46.31,137.642,49.363z"/>
			<polygon clip-path="url(#SVGID_2_)" fill="none" stroke="#FFFFFF" stroke-linejoin="round" stroke-miterlimit="10" points="
				135.22,74.368 135.22,64.839 136.974,52.365 139.896,52.365 142.234,63.648 148.638,59.479 148.638,63.648 155.979,59.507 
				155.979,63.677 163.276,59.479 163.276,74.368 150.417,74.368 			"/>
			
				<path clip-path="url(#SVGID_2_)" fill="none" stroke="#FFFFFF" stroke-linecap="round" stroke-linejoin="round" stroke-miterlimit="10" d="
				M51.221,67.837c0,0.338-0.273,0.612-0.61,0.612c-0.337,0-0.61-0.274-0.61-0.612c0-0.338,0.273-0.612,0.61-0.612
				C50.948,67.225,51.221,67.499,51.221,67.837z M37.193,64.168c0,0.673-0.547,1.223-1.22,1.223c-0.674,0-1.22-0.55-1.22-1.223
				c0-0.676,0.546-1.223,1.22-1.223C36.646,62.945,37.193,63.492,37.193,64.168z M54.88,62.333c0,1.013-0.819,1.835-1.829,1.835
				c-1.01,0-1.83-0.822-1.83-1.835c0-1.013,0.82-1.834,1.83-1.834C54.061,60.499,54.88,61.32,54.88,62.333z M29.264,61.11
				l15.248-13.454c5.489,0,12.808,3.67,12.808,9.785"/>
			<circle clip-path="url(#SVGID_2_)" fill="none" stroke="#FFFFFF" stroke-miterlimit="10" cx="45.713" cy="63.5" r="0.711"/>
			
				<path clip-path="url(#SVGID_2_)" fill="none" stroke="#FFFFFF" stroke-linecap="round" stroke-linejoin="round" stroke-miterlimit="10" d="
				M29.264,61.016v7.348c1.349,0,2.44,1.096,2.44,2.45c0,1.351-1.091,2.449-2.44,2.449v2.45l28.056-3.674V57.342L29.264,61.016z
				 M44.512,68.977c0,1.351-1.091,2.449-2.44,2.449c-1.345,0-2.439-1.098-2.439-2.449c0-1.354,1.094-2.449,2.439-2.449
				C43.421,66.528,44.512,67.623,44.512,68.977z"/>
			
				<path clip-path="url(#SVGID_2_)" fill="none" stroke="#FFFFFF" stroke-linecap="round" stroke-linejoin="round" stroke-miterlimit="10" d="
				M32.742,124.815c0-1.01,0.819-1.83,1.83-1.83c1.01,0,1.83,0.82,1.83,1.83 M41.281,124.815c0-1.01,0.819-1.83,1.83-1.83
				c1.01,0,1.83,0.82,1.83,1.83 M42.501,130.303c0,2.022-1.639,3.66-3.66,3.66c-2.021,0-3.659-1.638-3.659-3.66 M41.891,115.059
				v-4.27c-3.05,3.05-17.688,3.052-20.737,0v10.369c0,3.018,1.607,5.794,3.596,7.931 M49.21,126.646v-10.371
				c-3.05,3.05-17.687,3.052-20.737,0v10.371c0,6.707,7.929,12.198,10.368,12.198C41.281,138.844,49.21,133.354,49.21,126.646z"/>
			
				<path clip-path="url(#SVGID_2_)" fill="none" stroke="#FFFFFF" stroke-linecap="round" stroke-linejoin="round" stroke-miterlimit="10" d="
				M109.365,154.71h-6.099v-3.672h6.099V154.71z M89.847,151.038h4.88 M111.805,148.59v8.567h2.44v7.343 M100.826,148.59v7.343
				H89.237c-1.83,0-1.83,8.567,0,8.567 M99.606,148.59h14.639 M110.585,165.724c0,1.352-1.092,2.448-2.44,2.448
				c-1.346,0-2.44-1.096-2.44-2.448c0-1.352,1.094-2.448,2.44-2.448C109.493,163.276,110.585,164.372,110.585,165.724z
				 M103.266,165.724c0,1.352-1.093,2.448-2.44,2.448c-1.346,0-2.44-1.096-2.44-2.448c0-1.352,1.094-2.448,2.44-2.448
				C102.173,163.276,103.266,164.372,103.266,165.724z M95.946,165.724c0,1.352-1.092,2.448-2.439,2.448
				c-1.346,0-2.44-1.096-2.44-2.448c0-1.352,1.094-2.448,2.44-2.448C94.854,163.276,95.946,164.372,95.946,165.724z M86.328,166.336
				l2.299-1.836h2.782"/>
			<path clip-path="url(#SVGID_2_)" fill="none" stroke="#FFFFFF" stroke-linejoin="round" stroke-miterlimit="10" d="
				M110.166,164.435h3.974 M102.921,164.435h3.083 M95.638,164.435h3.083"/>
			
				<path clip-path="url(#SVGID_2_)" fill="none" stroke="#FFFFFF" stroke-linecap="round" stroke-linejoin="round" stroke-miterlimit="10" d="
				M93.664,151.012v5.053 M91.032,151.012v5.053"/>
			
				<path clip-path="url(#SVGID_2_)" fill="none" stroke="#FFFFFF" stroke-linecap="round" stroke-linejoin="round" stroke-miterlimit="10" d="
				M172.301,105.715l-28.056,28.056 M154.003,108.155c0,2.022-1.639,3.659-3.659,3.659c-2.021,0-3.659,1.639-3.659,3.66
				 M151.564,105.715c0,2.022-1.639,3.66-3.66,3.66c-2.021,0-3.659,1.639-3.659,3.659v2.44 M145.465,119.134v4.879 M166.202,119.134
				v4.879 M162.542,119.134h9.759v4.879h-14.638 M150.344,124.013h-2.44v-4.879h7.319"/>
			
				<path clip-path="url(#SVGID_2_)" fill="none" stroke="#FFFFFF" stroke-linecap="round" stroke-linejoin="round" stroke-miterlimit="10" d="
				M109.533,82.073l-5.732,6.686 M96.841,87.631l5.043,1.681 M89.307,92.566l5.445-4.54 M111.546,81.148
				c0,0.673-0.545,1.219-1.219,1.219c-0.674,0-1.22-0.546-1.22-1.219c0-0.675,0.546-1.22,1.22-1.22
				C111.001,79.928,111.546,80.473,111.546,81.148z M104.227,89.687c0,0.673-0.545,1.219-1.219,1.219
				c-0.673,0-1.22-0.546-1.22-1.219c0-0.675,0.547-1.221,1.22-1.221C103.682,88.466,104.227,89.012,104.227,89.687z M96.908,87.247
				c0,0.674-0.545,1.219-1.219,1.219c-0.673,0-1.22-0.545-1.22-1.219c0-0.675,0.547-1.22,1.22-1.22
				C96.363,86.027,96.908,86.572,96.908,87.247z M89.589,93.346c0,0.674-0.545,1.22-1.219,1.22c-0.673,0-1.22-0.546-1.22-1.22
				c0-0.675,0.547-1.22,1.22-1.22C89.044,92.126,89.589,92.671,89.589,93.346z M112.156,89.687h-3.659v18.297h3.659V89.687z
				 M104.837,98.225h-3.66v9.759h3.66V98.225z M97.518,95.786h-3.66v12.198h3.66V95.786z M90.199,101.885h-3.66v6.099h3.66V101.885z
				 M85.32,107.984h28.056"/>
		</g>
		<g>
			<g opacity="0.2">
				<g>
					<defs>
						<rect id="SVGID_55_" x="20.923" y="41.107" width="43.92" height="35.863"/>
					</defs>
					<clipPath id="SVGID_4_">
						<use xlink:href="#SVGID_55_"  overflow="visible"/>
					</clipPath>
					<path clip-path="url(#SVGID_4_)" fill="#FFFFFF" d="M29.923,59.746c0,0,12.406-13.361,15.269-11.452s8.589,2.676,9.544,5.633
						c0.954,2.956,0.954,12.499,0.954,13.454c0,0.954,0.954,5.726-1.909,5.726S29.923,75.97,29.923,75.97V59.746z"/>
				</g>
			</g>
			<g opacity="0.2">
				<g>
					<defs>
						<rect id="SVGID_57_" x="127.809" y="46.066" width="44.325" height="30.267"/>
					</defs>
					<clipPath id="SVGID_6_">
						<use xlink:href="#SVGID_57_"  overflow="visible"/>
					</clipPath>
					<path clip-path="url(#SVGID_6_)" fill="#FFFFFF" d="M138.717,53.066l-1.909,11.452v9.543c0,0,23.859,2.863,24.813,0
						c0.954-2.862,2.863-13.36,0-13.36c-2.863,0-2.863,3.817-4.772,2.863c-1.908-0.955-4.573-0.636-5.726,0.636
						c-1.152,1.272-1.908-0.823-3.817-2.161c-1.909-1.338-5.726,2.161-5.726,2.161L138.717,53.066z"/>
				</g>
			</g>
			<g opacity="0.2">
				<g>
					<defs>
						<rect id="SVGID_59_" x="139.261" y="112.869" width="42.048" height="12.056"/>
					</defs>
					<clipPath id="SVGID_8_">
						<use xlink:href="#SVGID_59_"  overflow="visible"/>
					</clipPath>
					<path clip-path="url(#SVGID_8_)" fill="#FFFFFF" d="M148.261,119.869h20.041c1.909,0,4.772,0.954,3.817,2.863
						c-0.954,1.909-10.497,0.954-13.36,0.954c-2.863,0-10.498-0.119-10.498-0.954V119.869z"/>
				</g>
			</g>
			<g opacity="0.2">
				<g>
					<defs>
						<rect id="SVGID_61_" x="12.334" y="105.341" width="45.781" height="33.487"/>
					</defs>
					<clipPath id="SVGID_10_">
						<use xlink:href="#SVGID_61_"  overflow="visible"/>
					</clipPath>
					<path clip-path="url(#SVGID_10_)" fill="#FFFFFF" d="M21.334,113.189c0,0,0,7.635,1.909,9.543
						c1.908,1.909,7.634,5.727,8.589,8.59c0.954,2.862,4.771,8.588,8.589,5.725c3.817-2.863,9.543-8.588,8.589-14.315
						c-0.955-5.726-3.818-4.771-6.681-4.771c-2.863,0-2.863-3.818-2.863-3.818s0-0.954-2.863-0.954S21.334,111.28,21.334,113.189"/>
				</g>
			</g>
			<g opacity="0.2">
				<g>
					<defs>
						<rect id="SVGID_63_" x="78.183" y="95.691" width="20.863" height="12.771"/>
					</defs>
					<clipPath id="SVGID_12_">
						<use xlink:href="#SVGID_63_"  overflow="visible"/>
					</clipPath>
					<path clip-path="url(#SVGID_12_)" fill="#FFFFFF" d="M87.183,102.691c0,2.863,0.954,4.771,1.909,4.771
						c0.954,0,0.954-4.771,0.954-4.771H87.183z"/>
				</g>
			</g>
			<g opacity="0.2">
				<g>
					<defs>
						<rect id="SVGID_65_" x="85.818" y="88.176" width="20.863" height="20.287"/>
					</defs>
					<clipPath id="SVGID_14_">
						<use xlink:href="#SVGID_65_"  overflow="visible"/>
					</clipPath>
					<path clip-path="url(#SVGID_14_)" fill="#FFFFFF" d="M94.818,95.176c0,7.372,0.954,12.287,1.909,12.287
						c0.954,0,0.954-12.287,0.954-12.287H94.818z"/>
				</g>
			</g>
			<g opacity="0.2">
				<g>
					<defs>
						<rect id="SVGID_67_" x="100.133" y="83.285" width="20.863" height="25.178"/>
					</defs>
					<clipPath id="SVGID_16_">
						<use xlink:href="#SVGID_67_"  overflow="visible"/>
					</clipPath>
					<path clip-path="url(#SVGID_16_)" fill="#FFFFFF" d="M109.133,90.285c0,10.307,0.954,17.178,1.909,17.178
						c0.954,0,0.954-17.178,0.954-17.178H109.133z"/>
				</g>
			</g>
			<g opacity="0.2">
				<g>
					<defs>
						<rect id="SVGID_69_" x="92.975" y="91.874" width="20.863" height="16.589"/>
					</defs>
					<clipPath id="SVGID_18_">
						<use xlink:href="#SVGID_69_"  overflow="visible"/>
					</clipPath>
					<path clip-path="url(#SVGID_18_)" fill="#FFFFFF" d="M101.975,98.874c0,5.153,0.954,8.589,1.909,8.589
						c0.954,0,0.954-8.589,0.954-8.589H101.975z"/>
				</g>
			</g>
			<g opacity="0.2">
				<g>
					<defs>
						<rect id="SVGID_71_" x="79.615" y="141.499" width="43.29" height="27.275"/>
					</defs>
					<clipPath id="SVGID_20_">
						<use xlink:href="#SVGID_71_"  overflow="visible"/>
					</clipPath>
					<path clip-path="url(#SVGID_20_)" fill="#FFFFFF" d="M90.046,156.134c1.909-4.772,3.817,0,6.203,0s5.726,0.53,5.726-2.121
						s1.909-5.514,5.249-5.514c3.34,0,3.817,6.767,4.772,7.678c0.954,0.911,1.908,2.82,1.908,4.729c0,1.908-3.34,3.817-3.34,4.771
						c0,0.955-2.386,1.909-3.34,0.955c-0.954-0.955-2.386-1.118-3.817,0.395c-1.432,1.513-3.818,0.559-4.772-1.35
						c-0.954-1.908-2.386-0.188-2.386,0.955c0,1.142-4.294,0-5.249-0.955c-0.954-0.954-2.386-2.863-2.386-4.771
						C88.614,158.997,90.046,156.134,90.046,156.134"/>
				</g>
			</g>
			<g opacity="0.2">
				<g>
					<defs>
						<rect id="SVGID_73_" x="85.317" y="11.709" width="31.862" height="28.996"/>
					</defs>
					<clipPath id="SVGID_22_">
						<use xlink:href="#SVGID_73_"  overflow="visible"/>
					</clipPath>
					<path clip-path="url(#SVGID_22_)" fill="#FFFFFF" d="M97.681,21.572c-1.432,2.863,1.432,2.863,0,4.772
						c-1.432,1.908-4.295,5.726-2.863,5.726c1.431,0-0.39,0.954-0.39,3.817c0,2.863-1.042,3.818,3.253,3.818h10.498l-4.772-6.681
						h2.863l-4.294-7.635h1.431l-3.817-6.68L97.681,21.572z"/>
				</g>
			</g>
		</g>
	</g>
</g>
</svg>
