<?xml version="1.0" encoding="utf-8"?>
<!-- Generator: Adobe Illustrator 19.2.1, SVG Export Plug-In . SVG Version: 6.00 Build 0)  -->
<svg version="1.1" id="Layer_1" xmlns="http://www.w3.org/2000/svg" xmlns:xlink="http://www.w3.org/1999/xlink" x="0px" y="0px"
	 viewBox="0 0 190 190" enable-background="new 0 0 190 190" xml:space="preserve">
<g>
	<g>
		<path fill="#F2BB40" d="M95,190c52.467,0,95-42.533,95-95S147.467,0,95,0S0,42.533,0,95S42.533,190,95,190"/>
	</g>
	<g>
		<defs>
			<circle id="SVGID_15_" cx="95" cy="95" r="95"/>
		</defs>
		<clipPath id="SVGID_2_">
			<use xlink:href="#SVGID_15_"  overflow="visible"/>
		</clipPath>
		
			<path clip-path="url(#SVGID_2_)" fill="none" stroke="#FFFFFF" stroke-linecap="round" stroke-linejoin="round" stroke-miterlimit="10" d="
			M165.174,85.415c0,0-6.418-20.202-12.563-20.202s-9.226,4.44-15.389,4.44c-6.163,0-10.345-2.22-10.345-2.22 M65.69,91.854
			c0,0-7.483-3.227-10.565-8.385c-3.081-5.158-3.962-11.818-3.962-11.818s-5.282,6.216-13.646,7.992
			C26.245,82.037,21.67,93.408,21.67,93.408 M55.895,109.725c0,0-6.097,7.923-12.949,7.923c-6.852,0-12.912-7.923-12.912-7.923
			l-2.641,6.549c0,0-2.972-4.995-7.263-3.774c-4.293,1.221-11.666,4.662-13.867,2.997s4.881,6.801,10.258,4.761
			c5.377-2.039,10.321-4.428,11.532-3.318c1.21,1.11,7.179,8.658,14.893,8.658c7.715,0,15.921-9.324,15.921-9.324L55.895,109.725z
			 M27.026,116.274l15.92,52.097 M-0.486,192.718v-66.01l27.512-10.434l-2.641,14.875l-6.361,4.884l23.814,35.964 M58.867,116.274
			l-18.929,61.94 M86.379,192.718v-66.01l-27.512-10.434l2.641,14.875l6.36,4.884l-27.93,42.181v15.54 M143.079,123.921
			c0,0.743,0.597,1.344,1.333,1.344c0.736,0,1.332-0.601,1.332-1.344c0-0.742-0.596-1.344-1.332-1.344
			C143.676,122.577,143.079,123.179,143.079,123.921z M25.454,88.272c0,13.103,7.832,23.725,17.492,23.725
			c9.661,0,17.493-10.622,17.493-23.725s-7.832-23.725-17.493-23.725C33.286,64.547,25.454,75.169,25.454,88.272z M125.997,83.469
			c0,13.794,8.245,24.976,18.415,24.976c10.17,0,18.415-11.182,18.415-24.976s-8.245-24.976-18.415-24.976
			C134.242,58.493,125.997,69.675,125.997,83.469z M130.155,106.728l1.198,40.109l7.844,20.707 M14.554,192.718v-42.033
			 M70.605,192.718v-42.033 M113.451,192.718v-42.033 M136.212,118.311l6.732,5.585l-3.747,7.697v35.951l5.215,10.67v14.504
			 M130.593,121.381l13.819-7.549l-14.257-7.104l-31.817,14.06v71.93 M158.669,106.728l-1.198,40.109l-7.844,20.707
			 M175.372,192.718v-42.033 M152.611,118.311l-6.732,5.585l3.748,7.697v35.951l-5.215,10.67 M158.231,121.381l-13.819-7.549
			l14.257-7.104l31.817,14.06v71.93"/>
	</g>
	<g>
		<defs>
			<circle id="SVGID_17_" cx="95" cy="95" r="95"/>
		</defs>
		<clipPath id="SVGID_4_">
			<use xlink:href="#SVGID_17_"  overflow="visible"/>
		</clipPath>
		<g opacity="0.8" clip-path="url(#SVGID_4_)">
			<g>
				<defs>
					<rect id="SVGID_19_" x="-19.2" y="45.543" width="223.9" height="148.244"/>
				</defs>
				<clipPath id="SVGID_6_">
					<use xlink:href="#SVGID_19_"  overflow="visible"/>
				</clipPath>
				<g opacity="0.2" clip-path="url(#SVGID_6_)">
					<g>
						<defs>
							<rect id="SVGID_21_" x="-11.2" y="103.188" width="107.1" height="90.6"/>
						</defs>
						<clipPath id="SVGID_8_">
							<use xlink:href="#SVGID_21_"  overflow="visible"/>
						</clipPath>
						<path clip-path="url(#SVGID_8_)" fill="#F2783E" d="M2.3,129.087c3.6-2.7,9-7.2,9.9-7.2c0.9,0,0,0-3.6-3.6
							c-3.6-3.6,1.8,0,6.3-2.7c4.5-2.7,7.2-1.8,9-0.9c1.8,0.9,5.4-2.7,5.4-2.7s4.5,6.3,9.9,6.3s16.2-8.1,16.2-8.1l3.6,7.2
							c0,0,4.5,2.7,10.8,3.6c6.3,0.9,16.2,2.7,16.2,11.7s-3.6,32.4-1.8,38.7c1.8,6.3,2.7,19.8,2.7,19.8s-23.4,3.6-36.9,0
							c-13.5-3.6-52.2-48.6-52.2-48.6L2.3,129.087z"/>
					</g>
				</g>
				<g opacity="0.2" clip-path="url(#SVGID_6_)">
					<g>
						<defs>
							<rect id="SVGID_23_" x="16.629" y="57.971" width="52.721" height="54.244"/>
						</defs>
						<clipPath id="SVGID_10_">
							<use xlink:href="#SVGID_23_"  overflow="visible"/>
						</clipPath>
						<path clip-path="url(#SVGID_10_)" fill="#F2783E" d="M34.7,68.184c0,0-12.6,7.804-8.1,24.004s13.5,19.8,18.9,18.9
							c5.4-0.9,14.85-14.4,14.85-27S42.989,58.888,34.7,68.184"/>
					</g>
				</g>
				<g opacity="0.2" clip-path="url(#SVGID_6_)">
					<g>
						<defs>
							<rect id="SVGID_25_" x="116.6" y="51.543" width="55.8" height="56.945"/>
						</defs>
						<clipPath id="SVGID_12_">
							<use xlink:href="#SVGID_25_"  overflow="visible"/>
						</clipPath>
						<path clip-path="url(#SVGID_12_)" fill="#F2783E" d="M135.475,61.943c0,0-13.717,8.26-8.818,25.406
							c4.899,17.145,14.697,20.955,20.576,20.003c5.879-0.953,16.167-15.241,16.167-28.576C163.4,65.44,144.5,52.104,135.475,61.943
							"/>
					</g>
				</g>
				<g opacity="0.2" clip-path="url(#SVGID_6_)">
					<g>
						<defs>
							<rect id="SVGID_27_" x="89.765" y="99.893" width="106.935" height="93.894"/>
						</defs>
						<clipPath id="SVGID_14_">
							<use xlink:href="#SVGID_27_"  overflow="visible"/>
						</clipPath>
						<path clip-path="url(#SVGID_14_)" fill="#F2783E" d="M102.2,192.787c0,0-1.8-12.4-2.7-19.6c-0.9-7.2-1.8-49.5,2.7-53.1
							c4.5-3.6,19.8-9,24.3-10.8c4.5-1.8,9,3.6,14.4,4.5c5.4,0.9,9.9-3.429,12.6-4.865c2.7-1.435,2.7-2.87,8.1-1.435
							c5.4,1.435,26.1,14.4,26.1,14.4s-6.3,36.9-12.6,45.9S102.2,192.787,102.2,192.787"/>
					</g>
				</g>
			</g>
		</g>
	</g>
	<g>
		<path fill="#F45F57" d="M82.298,41.855c0,0,0-6.152,12.702-6.152c12.701,0,12.701-6.152,12.701-6.152v6.152
			c0,0,0,6.152-12.701,6.152c-12.702,0-12.702,6.152-12.702,6.152V41.855z"/>
		<path fill="#F45F57" d="M82.298,54.159c0,0,0-6.152,12.702-6.152c12.701,0,12.701-6.152,12.701-6.152v6.152
			c0,0,0,6.152-12.701,6.152c-12.702,0-12.702,6.152-12.702,6.152V54.159z"/>
		<path fill="#FFFFFF" d="M82.298,48.007c0,0,0-6.152,12.702-6.152c12.701,0,12.701-6.152,12.701-6.152v6.152
			c0,0,0,6.152-12.701,6.152c-12.702,0-12.702,6.152-12.702,6.152V48.007z"/>
	</g>
</g>
</svg>
