<?xml version="1.0" encoding="utf-8"?>
<!-- Generator: Adobe Illustrator 17.1.0, SVG Export Plug-In . SVG Version: 6.00 Build 0)  -->
<!DOCTYPE svg PUBLIC "-//W3C//DTD SVG 1.1//EN" "http://www.w3.org/Graphics/SVG/1.1/DTD/svg11.dtd">
<svg version="1.1" id="Layer_1" xmlns="http://www.w3.org/2000/svg" xmlns:xlink="http://www.w3.org/1999/xlink" x="0px" y="0px"
	 viewBox="0 0 20 20" width="20" height="20" preserveAspectRatio="xMinYMid" enable-background="new 0 0 20 20" xml:space="preserve">
<g>
	<circle fill="none" stroke="#FFFFFF" stroke-linejoin="round" stroke-miterlimit="10" cx="14.421" cy="14.42" r="3.088"/>
	<path fill="none" stroke="#FFFFFF" stroke-linecap="round" stroke-linejoin="round" stroke-miterlimit="10" d="M16.196,3.804v4.544
		 M8.348,17.848c-4.334,0-7.848-1.48-7.848-3.304V3.804 M8.348,14.13c-4.334,0-7.848-1.479-7.848-3.304 M9.587,10.371
		c-0.404,0.028-0.818,0.042-1.239,0.042c-4.334,0-7.848-1.479-7.848-3.304 M16.196,3.804c0,1.826-3.514,3.305-7.848,3.305
		S0.5,5.63,0.5,3.804C0.5,1.979,4.014,0.5,8.348,0.5S16.196,1.979,16.196,3.804z M16.609,16.609L19.5,19.5"/>
</g>
</svg>
