<?xml version="1.0" encoding="utf-8"?>
<!-- Generator: Adobe Illustrator 17.1.0, SVG Export Plug-In . SVG Version: 6.00 Build 0)  -->
<!DOCTYPE svg PUBLIC "-//W3C//DTD SVG 1.1//EN" "http://www.w3.org/Graphics/SVG/1.1/DTD/svg11.dtd">
<svg version="1.1" id="Layer_1" xmlns="http://www.w3.org/2000/svg" xmlns:xlink="http://www.w3.org/1999/xlink" x="0px" y="0px"
	 viewBox="0 0 15 15" enable-background="new 0 0 15 15" xml:space="preserve">
<g>
	<path fill="#7F7F7F" d="M5.625,1.25C8.037,1.25,10,3.212,10,5.625C10,8.037,8.037,10,5.625,10C3.212,10,1.25,8.037,1.25,5.625
		C1.25,3.212,3.212,1.25,5.625,1.25 M5.625,11.25c1.332,0,2.556-0.468,3.521-1.245l4.786,4.811c0.243,0.245,0.638,0.246,0.884,0.002
		c0.245-0.244,0.245-0.639,0.002-0.884l-4.792-4.816c0.764-0.96,1.224-2.173,1.224-3.493C11.25,2.523,8.727,0,5.625,0
		S0,2.523,0,5.625S2.523,11.25,5.625,11.25"/>
</g>
</svg>
