<?xml version="1.0" encoding="utf-8"?>
<!-- Generator: Adobe Illustrator 17.1.0, SVG Export Plug-In . SVG Version: 6.00 Build 0)  -->
<!DOCTYPE svg PUBLIC "-//W3C//DTD SVG 1.1//EN" "http://www.w3.org/Graphics/SVG/1.1/DTD/svg11.dtd">
<svg version="1.1" id="Layer_1" xmlns="http://www.w3.org/2000/svg" xmlns:xlink="http://www.w3.org/1999/xlink" x="0px" y="0px"
	 viewBox="0 0 20 20" preserveAspectRatio="xMinYMid" enable-background="new 0 0 20 20" xml:space="preserve">
<g>
	<path fill="none" stroke="#F55F57" stroke-linecap="round" stroke-linejoin="round" stroke-miterlimit="10" d="M13.192,13.192
		L19.5,19.5 M15.37,7.935c0,4.106-3.329,7.435-7.435,7.435S0.5,12.041,0.5,7.935S3.829,0.5,7.935,0.5S15.37,3.829,15.37,7.935z"/>
	<path fill="none" stroke="#F55F57" stroke-linejoin="round" stroke-miterlimit="10" d="M11.63,12.502
		c-0.664-0.314-1.385-0.627-2.062-0.896V9.967c0,0,0.825-0.286,0.825-2.049c0.574,0,0.826-1.639,0.027-1.639
		c0-0.173,0.632-1.072,0.386-2.049c-0.413-1.639-4.541-1.639-4.954,0C4.114,3.878,5.439,6.043,5.439,6.279
		c-0.825,0-0.574,1.639,0,1.639c0,1.763,0.826,2.049,0.826,2.049v1.639c-0.678,0.269-1.4,0.582-2.064,0.897"/>
</g>
</svg>
