<?xml version="1.0" encoding="utf-8"?>
<!-- Generator: Adobe Illustrator 17.1.0, SVG Export Plug-In . SVG Version: 6.00 Build 0)  -->
<!DOCTYPE svg PUBLIC "-//W3C//DTD SVG 1.1//EN" "http://www.w3.org/Graphics/SVG/1.1/DTD/svg11.dtd">
<svg version="1.1" id="Layer_1" xmlns="http://www.w3.org/2000/svg" xmlns:xlink="http://www.w3.org/1999/xlink" x="0px" y="0px"
	 viewBox="0 0 14 14" preserveAspectRatio="xMinYMid" enable-background="new 0 0 14 14" xml:space="preserve">
<g>
	<path fill="none" stroke="#3F925B" stroke-linecap="round" stroke-linejoin="round" stroke-miterlimit="10" d="M11.432,9.395
		L11.432,9.395c0.49,0,0.886,0.396,0.886,0.884c0,0.489-0.396,0.884-0.886,0.884h-0.591c0.49,0,0.886,0.396,0.886,0.884
		c0,0.489-0.396,0.884-0.886,0.884H7c-2.363,0-1.773-1.179-6.5-1.179V6.449h1.773c2.068,0,4.432-1.898,4.432-4.714
		c0-0.932,1.772-1.05,1.772,0.718c0,1.178-0.59,3.406-0.59,3.406h4.727c0.49,0,0.886,0.397,0.886,0.884
		c0,0.489-0.396,0.884-0.886,0.884h-0.591c0.49,0,0.886,0.396,0.886,0.884c0,0.489-0.396,0.884-0.886,0.884H11.432z"/>
</g>
</svg>
